<svg xmlns="http://www.w3.org/2000/svg" width="720" height="420" viewBox="0 0 720 420" font-family="system-ui,sans-serif">
<rect width="720" height="420" fill="#ffffff"/>
<text x="64" y="36" font-size="17" font-weight="600">QA accuracy vs compression</text>
<text x="64" y="54" font-size="12" fill="#666">x: achieved ratio (lower = more compression) &#183; y: exact_match</text>
<line x1="64" y1="356" x2="656" y2="356" stroke="#ccc"/>
<line x1="64" y1="64" x2="64" y2="356" stroke="#ccc"/>
<line x1="64.0" y1="64" x2="64.0" y2="356" stroke="#f1f3f5"/>
<text x="64.0" y="374" font-size="11" fill="#666" text-anchor="middle">0.00</text>
<line x1="212.0" y1="64" x2="212.0" y2="356" stroke="#f1f3f5"/>
<text x="212.0" y="374" font-size="11" fill="#666" text-anchor="middle">0.25</text>
<line x1="360.0" y1="64" x2="360.0" y2="356" stroke="#f1f3f5"/>
<text x="360.0" y="374" font-size="11" fill="#666" text-anchor="middle">0.50</text>
<line x1="508.0" y1="64" x2="508.0" y2="356" stroke="#f1f3f5"/>
<text x="508.0" y="374" font-size="11" fill="#666" text-anchor="middle">0.75</text>
<line x1="656.0" y1="64" x2="656.0" y2="356" stroke="#f1f3f5"/>
<text x="656.0" y="374" font-size="11" fill="#666" text-anchor="middle">1.00</text>
<line x1="64" y1="356.0" x2="656" y2="356.0" stroke="#f1f3f5"/>
<text x="56" y="360.0" font-size="11" fill="#666" text-anchor="end">0.00</text>
<line x1="64" y1="283.0" x2="656" y2="283.0" stroke="#f1f3f5"/>
<text x="56" y="287.0" font-size="11" fill="#666" text-anchor="end">0.19</text>
<line x1="64" y1="210.0" x2="656" y2="210.0" stroke="#f1f3f5"/>
<text x="56" y="214.0" font-size="11" fill="#666" text-anchor="end">0.38</text>
<line x1="64" y1="137.0" x2="656" y2="137.0" stroke="#f1f3f5"/>
<text x="56" y="141.0" font-size="11" fill="#666" text-anchor="end">0.57</text>
<line x1="64" y1="64.0" x2="656" y2="64.0" stroke="#f1f3f5"/>
<text x="56" y="68.0" font-size="11" fill="#666" text-anchor="end">0.77</text>
<line x1="64" y1="135.94202898550725" x2="656" y2="135.94202898550725" stroke="#adb5bd" stroke-dasharray="6 4"/>
<text x="656" y="129.94202898550725" font-size="11" fill="#868e96" text-anchor="end">uncompressed (0.578)</text>
<circle cx="336.0" cy="119.0" r="6" fill="#4c6ef5" opacity="0.9"/>
<text x="336.0" y="108.0" font-size="10" fill="#495057" text-anchor="middle">0.50</text>
<circle cx="238.6" cy="102.1" r="6" fill="#4c6ef5" opacity="0.9"/>
<text x="238.6" y="91.1" font-size="10" fill="#495057" text-anchor="middle">0.33</text>
<circle cx="379.6" cy="110.6" r="6" fill="#f59f00" opacity="0.9"/>
<text x="379.6" y="99.6" font-size="10" fill="#495057" text-anchor="middle">0.50</text>
<circle cx="282.1" cy="119.0" r="6" fill="#f59f00" opacity="0.9"/>
<text x="282.1" y="108.0" font-size="10" fill="#495057" text-anchor="middle">0.33</text>
<circle cx="506" cy="66" r="5" fill="#4c6ef5"/>
<text x="518" y="70" font-size="12" fill="#343a40">lingua2</text>
<circle cx="506" cy="84" r="5" fill="#f59f00"/>
<text x="518" y="88" font-size="12" fill="#343a40">grug-ettin-32m-meetingbank</text>
</svg>